<?xml version="1.0" encoding="utf-8"?>
<!-- Generator: Adobe Illustrator 19.0.0, SVG Export Plug-In . SVG Version: 6.00 Build 0)  -->
<svg version="1.1" id="Layer_1" xmlns="http://www.w3.org/2000/svg" xmlns:xlink="http://www.w3.org/1999/xlink" x="0px" y="0px"
	 viewBox="0 0 440 218" style="enable-background:new 0 0 440 218;" xml:space="preserve">
<style type="text/css">
	.st0{fill:url(#XMLID_7_);}
	.st1{fill:#FFFFFF;}
	.st2{font-family:'Roboto-Regular';}
	.st3{font-size:73.416px;}
</style>
<g id="g16" transform="scale(0.015625)">
	
		<linearGradient id="XMLID_7_" gradientUnits="userSpaceOnUse" x1="2073791.625" y1="-1605681.375" x2="2073792" y2="-1605901.125" gradientTransform="matrix(1.562500e-02 0 0 -1.562500e-02 -18333 -25106)">
		<stop  offset="0" style="stop-color:#F9AA4B"/>
		<stop  offset="1" style="stop-color:#F7931A"/>
	</linearGradient>
	<path id="XMLID_5_" class="st0" d="M26198.2,14030.1H1961.8C878.4,14030.1,0,13140.5,0,12043.1V1987C0,889.7,878.4,0,1961.8,0
		h24236.3C27281.6,0,28160,889.7,28160,1987v10056.1C28160,13140.5,27281.6,14030.1,26198.2,14030.1z"/>
	<path id="symbol" class="st1" d="M8642.8,4329c-113.3-1077.7-1036.2-1429.8-2198-1520.8l-15.1-1496.3l-899.2,9.4l14.7,1456.8
		c-236.4,2.4-478,9.7-718,17l-14.6-1466.5l-898.7,9.3l14.7,1495.9c-194.6,6-385.8,11.6-572.2,13.7l-0.2-4.6l-1240.2,12.3l10,972.8
		c0,0,663.9-19.7,653-7.1c364.2-3.7,484.9,209.3,521.3,393.8l17.2,1704.6c25.2-0.1,57.9,0.6,95.1,5.4c-30,0.3-62,0.5-95,1.1
		l23.8,2388c-14.8,116.2-80.3,302-334.8,305.2c11.6,10.2-653.7,6.5-653.7,6.5l-167.7,1089.5l1170.2-12.1
		c217.8-1.9,432.1-0.4,642.4-1.2l15.6,1513.3l898.2-9.1l-15.1-1497.3c246.7,2.7,485.3,2.1,718.4-0.5l14.6,1490.4l899.2-9.4
		l-14.9-1510.6c1510.9-103.4,2565.1-500,2682.1-1939.3c94.4-1159-448.5-1670-1308.8-1869.9C8405.8,5594.6,8726.9,5117.5,8642.8,4329
		L8642.8,4329z M7417.3,7577.8c11.9,1130.9-1901.2,1022-2510.7,1028.8l-19.9-2005.1C5496.3,6595.4,7405.5,6398.2,7417.3,7577.8z
		 M6970.7,4753.2c10.1,1028.8-1585.6,925.2-2093.2,930.5l-18.2-1818.5C5366.8,3860,6959.7,3680.1,6970.7,4753.2z"/>
	<text id="XMLID_1_" transform="matrix(63.1886 0 0 64 9206.4688 9678)" class="st1 st2 st3">itFor.me</text>
</g>
</svg>
