<?xml version="1.0" encoding="utf-8"?>
<!-- Generator: Adobe Illustrator 19.0.0, SVG Export Plug-In . SVG Version: 6.00 Build 0)  -->
<svg version="1.1"
	 id="svg2" sodipodi:docname="bitcoin-logo-noshadow.svg" inkscape:version="0.48.2 r9819" xmlns:svg="http://www.w3.org/2000/svg" xmlns:rdf="http://www.w3.org/1999/02/22-rdf-syntax-ns#" xmlns:sodipodi="http://sodipodi.sourceforge.net/DTD/sodipodi-0.dtd" xmlns:inkscape="http://www.inkscape.org/namespaces/inkscape" xmlns:dc="http://purl.org/dc/elements/1.1/" xmlns:cc="http://creativecommons.org/ns#"
	 xmlns="http://www.w3.org/2000/svg" xmlns:xlink="http://www.w3.org/1999/xlink" x="0px" y="0px" viewBox="-49 141 512 512"
	 style="enable-background:new -49 141 512 512;" xml:space="preserve">
<style type="text/css">
	.st0{fill:url(#SVGID_1_);}
	.st1{fill:#FFFFFF;}
	.st2{font-family:'Roboto-Regular';}
	.st3{font-size:72px;}
</style>
<sodipodi:namedview  inkscape:current-layer="svg2" inkscape:window-maximized="0" inkscape:window-y="0" inkscape:window-x="0" inkscape:window-height="861" inkscape:window-width="1447" inkscape:pageshadow="2" inkscape:pageopacity="0" id="namedview20" pagecolor="#ffffff" objecttolerance="10" gridtolerance="10" borderopacity="1" guidetolerance="10" inkscape:cx="212.51437" bordercolor="#666666" inkscape:cy="233.24617" inkscape:zoom="0.921875" showgrid="false">
	</sodipodi:namedview>
<g id="g16" transform="scale(0.015625)">
	<linearGradient id="SVGID_1_" gradientUnits="userSpaceOnUse" x1="10839.9316" y1="19248.4824" x2="10840.2383" y2="19464.0117">
		<stop  offset="0" style="stop-color:#F9AA4B"/>
		<stop  offset="1" style="stop-color:#F7931A"/>
	</linearGradient>
	<path class="st0" d="M22886.8,33025.1H-1187.3c-1076.2,0-1948.7-872.5-1948.7-1948.7v-9862.1c0-1076.2,872.5-1948.7,1948.7-1948.7
		h24074.1c1076.2,0,1948.7,872.5,1948.7,1948.7v9862.1C24835.5,32152.7,23963,33025.1,22886.8,33025.1z"/>
	<path id="symbol" class="st1" d="M5448.9,23511.1c-112.5-1056.9-1029.3-1402.2-2183.3-1491.5l-15-1467.4l-893.2,9.2l14.6,1428.7
		c-234.8,2.4-474.8,9.5-713.2,16.7l-14.5-1438.2l-892.7,9.1l14.6,1467c-193.3,5.9-383.2,11.4-568.4,13.4l-0.2-4.5l-1231.9,12.1
		l9.9,954c0,0,659.5-19.3,648.6-7c361.8-3.6,481.7,205.3,517.8,386.2l17.1,1671.7c25-0.1,57.5,0.6,94.5,5.3
		c-29.8,0.3-61.6,0.5-94.4,1.1l23.6,2341.9c-14.7,114-79.8,296.2-332.6,299.3c11.5,10-649.3,6.4-649.3,6.4l-166.6,1068.5
		l1162.4-11.9c216.3-1.9,429.2-0.4,638.1-1.2l15.5,1484.1l892.2-8.9l-15-1468.4c245,2.6,482.1,2.1,713.6-0.5l14.5,1461.7l893.2-9.2
		l-14.8-1481.5c1500.8-101.4,2547.9-490.4,2664.1-1901.9c93.8-1136.6-445.5-1637.8-1300-1833.8
		C5213.5,24752.3,5532.5,24284.4,5448.9,23511.1L5448.9,23511.1z M4231.6,26697.2c11.8,1109.1-1888.5,1002.3-2493.9,1009
		l-19.8-1966.4C2323.5,25733.8,4219.9,25540.4,4231.6,26697.2z M3788,23927.1c10,1009-1575,907.4-2079.2,912.6l-18.1-1783.4
		C2194.9,23051.2,3777.1,22874.7,3788,23927.1z"/>
	<text transform="matrix(64 0 0 64 6008.8477 28756.9492)" class="st1 st2 st3">itFor.me</text>
</g>
</svg>
